<?xml version="1.0" encoding="utf-8"?>
<!-- Generator: Adobe Illustrator 23.0.6, SVG Export Plug-In . SVG Version: 6.00 Build 0)  -->
<svg version="1.1"
	 id="svg2" xmlns:cc="http://creativecommons.org/ns#" xmlns:dc="http://purl.org/dc/elements/1.1/" xmlns:rdf="http://www.w3.org/1999/02/22-rdf-syntax-ns#" xmlns:svg="http://www.w3.org/2000/svg"
	 xmlns="http://www.w3.org/2000/svg" xmlns:xlink="http://www.w3.org/1999/xlink" x="0px" y="0px" viewBox="0 0 657 195"
	 style="enable-background:new 0 0 657 195;" xml:space="preserve">
<style type="text/css">
	.st0{fill:#004FA4;}
</style>
<g>
	<path class="st0" d="M80.1,156.7c-6.2,0.9-8-8.5-8-12.3c0-3,0.3-3-0.1-3.4c-4.1-4.1-6.1-11.7-7.2-20.1c-0.6-4.6-10.7-4.4-15.1-6
		c-7.5-2.8-5.9-8.3-6.5-8.7c-11-6.3-16.8-9.7-16.8-21.4C26.3,72,48.8,62.1,65.6,54c16.8-8,18.1-26.3,18.1-33.4c0-1.3,0.3-2,0.9-2
		c0.6,0,0.9,0.9,0.9,2c0,12.7-1.2,31.2-19,40.8C50.6,70,40.9,73.8,40.9,84.1c0,11.2,18.6,14.8,25.8,14.7c0.7,0-0.4-3.9,4.2-3.9
		c4.7,0,16.1,0.6,21.4,0.6c5.2,0,16.7-0.6,21.4-0.6c4.7,0,3.5,3.9,4.2,3.9c7.2,0.1,25.8-3.5,25.8-14.7c0-10.3-9.7-14.1-25.6-22.7
		c-17.7-9.6-19-28.1-19-40.8c0-1.1,0.3-2,0.9-2c0.6,0,0.9,0.7,0.9,2c0,7.2,1.3,25.4,18.1,33.4c16.8,8,39.3,18,39.3,30.8
		c0,11.8-5.8,15.1-16.8,21.4c-0.6,0.4,1,5.9-6.5,8.7c-4.4,1.6-14.5,1.4-15.1,6c-1.1,8.4-3.2,16-7.2,20.1c-0.4,0.4-0.1,0.4-0.1,3.4
		c0,3.8-1.8,13.2-8,12.3c-3.1-0.5-10.5-0.8-12.3-0.8C90.6,155.8,83.1,156.2,80.1,156.7"/>
	<path class="st0" d="M199.6,155h-22.6c-2.5,0-3.2-1-3.2-3.5V74.2c0-2.5,1.1-3.2,3.6-3.2h18.2c19.5,0,30.4,5.9,30.4,20.5
		c0,8.5-4.9,15.9-13.7,17.8v0.1c11.5,0.8,20.3,8.7,20.3,21C232.7,150.1,216.8,155,199.6,155 M196.2,82.9h-6.8v22.6h6.3
		c8.9,0,15.2-2.3,15.2-12.1C210.9,85.5,204.7,82.9,196.2,82.9 M210.4,118.7c-3.8-1.8-7.9-2.2-13-2.2h-8v26.4h9
		c4.2,0,8.4-0.4,11.4-1.6c4.2-1.8,7-5.6,7-11.4C216.8,124.3,214.3,120.6,210.4,118.7"/>
	<path class="st0" d="M291.5,73.8l-0.8,7.3c-0.2,2.2-1.6,2.5-4.1,2.5h-30.4v22h28c2.3,0,3,1,3,2.7v6.9c0,2.1-0.8,2.9-2.9,2.9h-28.1
		v33.8c0,2.2-0.9,3-2.9,3h-9.5c-2.4,0-3.3-0.6-3.3-3.3V74.1c0-1.9,0.8-3,2.8-3H289C291.3,71,291.8,72,291.5,73.8"/>
	<path class="st0" d="M357.1,151.4c-8,3.3-15.3,5-24.1,5c-25.6,0-38.1-18.1-38.1-43c0-24.9,14.9-43.9,39.3-43.9
		c8.4,0,15.9,1.7,22.8,5.1c1.5,0.7,1.9,1.3,1.9,2.1c0,0.5-0.1,1-0.4,1.6l-2.8,7.6c-0.4,1.1-1,1.6-1.7,1.6c-0.4,0-0.8-0.2-1.3-0.5
		c-6.1-3.2-11.5-4.4-17.6-4.4c-16.9,0-23.4,15.5-23.4,30.2c0,18.7,8.7,30.6,23.6,30.6c5.8,0,11.8-1.3,17.5-3.9
		c0.6-0.2,1.1-0.5,1.5-0.5c0.8,0,1.5,0.6,1.9,1.8l2.4,6.5c0.2,0.6,0.4,1.2,0.4,1.7C359,150.1,358.6,150.8,357.1,151.4"/>
	<g>
		<path class="st0" d="M444,98.8c-0.9,1.6-2,2.2-2.5,1.8c-4.5-2.9-9.5-4.3-14.6-4.3c-13.4,0-19.5,10.4-19.5,26.4
			c0,15.5,5.9,26.3,20.3,26.3c3.8,0,8.1-0.7,11-1.9v-19.6h-14.3c-0.6,0-0.8-0.9-0.8-2.9v-1.3c0-2.1,0.2-3,0.8-3h22.8v31.4
			c-5,2.3-13.2,4.5-20.9,4.5c-18.5,0-27.9-12.4-27.9-33c0-20.8,9.6-34.2,28.1-34.2c7.7,0,13.9,2.1,18.3,5.4c0.5,0.4,0.7,1.5-0.2,3.2
			L444,98.8z"/>
		<path class="st0" d="M462.2,107.4c3.3,0,3.7,0.3,3.7,1.1l0.2,9.4c3.5-7.6,8.5-11,13.3-11c0.8,0,1.5,0.1,1.9,0.2
			c0.8,0.2,0.9,0.5,0.9,2.5v1.4c0,2.6-0.1,3.4-1,3.4c-6.4,0-9.7,4-12.3,8.3c-1.3,2.1-2,4.6-2.2,7.8c-0.2,2.5-0.3,8.2-0.3,13.4v10.4
			c0,0.6-0.1,1.1-3.7,1.1h-0.6c-3.6,0-3.9-0.4-3.9-1.1v-31c0-6.2-0.2-12.5-0.2-14.8c0-0.7,0.3-1.1,3.7-1.1H462.2z"/>
		<path class="st0" d="M523.2,111c4.5,4,7.2,10.7,7.2,19.3c0,17.2-9,26-22.6,26c-5.5,0-10.2-1.5-13.6-4.5c-4.5-4-7.2-10.7-7.2-19.3
			c0-17.2,9-26,22.6-26C515.1,106.5,519.7,107.9,523.2,111z M495.4,131.8c0,8.2,2.7,17.2,12.6,17.2c7.3,0,13.7-5.1,13.7-18.1
			c0-8.2-2.7-17.2-12.6-17.2C501.9,113.8,495.4,118.8,495.4,131.8z"/>
		<path class="st0" d="M543.5,107.4c3.5,0,3.8,0.4,3.8,1.1v23.8c0,7.2,0.3,10.9,2.3,13.3c1.6,2,4.4,3.1,8.1,3.1
			c3.5,0,7.7-1.2,9.9-3.3c1.9-1.8,2.9-4.5,2.9-14.5v-22.4c0-0.6,0.5-1.1,3.6-1.1h0.8c3.1,0,3.7,0.4,3.7,1.1v31
			c0,6.2,0.2,12.5,0.2,14.8c0,0.7-0.3,1.1-3.7,1.1h-0.4c-3.2,0-3.7-0.4-3.7-1.1l-0.2-3.9h-0.1c-3.4,3.7-8.4,5.9-15.1,5.9
			c-4.9,0-9.1-1.6-12.1-4.8c-3.2-3.4-4.5-8.1-4.5-15.4v-27.5c0-0.6,0.2-1.1,3.6-1.1H543.5z"/>
		<path class="st0" d="M594.4,107.4c3.3,0,3.8,0.3,3.8,1.1l0.1,4.1h-0.1c2.8-3.5,8.2-6.1,13.2-6.1c12,0,19.3,9,19.3,23.9
			c0,13.6-7.2,25.8-22.2,25.8c-3.5,0-7.6-1.3-9.9-2.8v21.9c0,0.9-0.8,1.2-3.9,1.2h-0.5c-2.9,0-3.7-0.3-3.7-1.2v-52
			c0-6.2-0.2-12.5-0.2-14.8c0-0.7,0.3-1.1,3.7-1.1H594.4z M598.6,145.4c2.3,1.9,5.8,3.5,9.4,3.5c8.5,0,14.1-7.2,14.1-18.2
			c0-11-5.1-16.8-12.2-16.8c-3.6,0-7.8,1.6-9.6,4c-1.6,2.1-1.7,4.4-1.7,13.4V145.4z"/>
	</g>
</g>
</svg>
