<?xml version="1.0" encoding="UTF-8" standalone="no"?>
<!DOCTYPE svg PUBLIC "-//W3C//DTD SVG 1.1//EN" "http://www.w3.org/Graphics/SVG/1.1/DTD/svg11.dtd">
<svg version="1.1" xmlns="http://www.w3.org/2000/svg" xmlns:xlink="http://www.w3.org/1999/xlink" preserveAspectRatio="xMidYMid meet" viewBox="0 0 547 215" width="547" height="215"><defs><path d="M69.37 71.49C69.37 87.23 59.63 94.29 58.55 96.83C48.96 105.19 36.85 104.35 34.44 105.19C16.96 105.19 10.09 94.78 7.38 93.63C0.01 84.78 0.74 74.7 0.01 72.59C-0.11 66.62 1.42 60.74 4.43 55.59C5.96 55.24 18.16 52.49 19.68 52.14C16.27 57.64 14.52 64 14.64 70.47C14.64 79.59 19.43 83.47 19.96 84.91C25.28 90.24 32.96 89.7 34.41 90.24C43.38 90.24 47.25 85.7 48.67 85.2C52.2 81.84 53.98 77.24 54 71.42L54 10.53L69.37 2.37C69.37 39.24 69.37 62.27 69.37 71.49Z" id="g341OXQQIG"></path><path d="M17.02 169.85C16.96 191.72 31.39 189.58 32.98 191.77C48.75 191.81 47.23 172.12 48.81 169.93C48.81 157.71 44.75 153.03 44.3 151.15C41.83 147.39 37.6 145.16 33.11 145.24C28.29 145.07 23.75 147.52 21.26 151.65C18.47 155.93 17.07 162 17.05 169.85M51.83 199.81C56.03 204.64 60.72 209.87 65.89 215.51L47.65 215.46C42.13 208.99 39.07 205.39 38.46 204.67C36.9 204.8 35.05 204.88 32.9 204.87C16.26 204.83 10.15 194.35 7.62 193.18C0.78 183.84 1.47 172.18 0.78 169.84C0.83 152.19 9.34 144.48 10.29 141.66C18.98 131.92 30.82 132.92 33.1 131.95C49.43 131.99 55.76 143.8 58.28 145.12C65.12 155.47 64.43 167.52 65.12 170.01C65.09 183.41 60.66 193.36 51.83 199.85" id="cnhOSjnk8"></path><path d="M139.33 196.49C143.54 190.7 145.88 187.48 146.35 186.84C152.43 191.08 161.03 190.68 162.67 191.11C173.54 191.11 172.48 183.63 173.57 182.8C173.57 177.81 162.3 174.18 161.05 173.22C141.96 166.29 143.91 153.69 142 151.52C142 142.52 148.03 138.64 148.7 137.21C154.93 132.22 163.8 132.75 165.48 132.26C177.37 132.26 185.65 138.9 187.9 139.64C185.89 142.64 181.88 148.32 181.21 149.29C171.89 145.38 166.84 145.75 165.24 145.36C156.79 145.36 157.63 151.04 156.78 151.67C156.78 153.45 157.63 155.12 159.06 156.17C161.34 158.01 167.1 160.24 167.99 160.69C179.53 165.16 183.05 169.63 184.72 170.62C188.09 174.07 189.93 178.72 189.85 183.54C189.85 194.65 182.41 198.82 181.59 200.52C174.91 205.27 166.48 204.77 164.8 205.25C156.96 205.25 148.49 202.34 139.4 196.52" id="avPDjQ74c"></path><path d="M218.92 165.71C220.94 166.31 223.03 166.61 225.14 166.61C225.21 166.61 225.74 166.61 225.81 166.61C234.25 166.54 233.43 155.74 234.28 154.53C234.28 144.99 226.4 145.91 225.53 144.95C221.6 144.95 219.42 145.21 218.97 145.71C218.94 156.38 218.93 163.04 218.92 165.71ZM203.16 203.98C203.27 161.87 203.33 138.47 203.34 133.8C206.23 133.35 209.14 133.06 212.06 132.93C219.57 132.39 222.41 132.46 223.56 132.4C250.76 132.47 248 152.36 250.71 154.58C250.71 162.57 247.62 169.29 241.44 174.76L255.02 204.12L239.25 204.08C232.36 189 228.53 180.63 227.77 178.95C226.79 179.17 225.78 179.28 224.77 179.28C224.7 179.28 224.09 179.28 224.01 179.28C222.28 179.24 220.57 178.99 218.9 178.52C218.9 180.22 218.88 188.73 218.84 204.06L203.16 203.98Z" id="bd1LS2ZTS"></path><path d="M368.77 134.12L368.59 204.42L352.93 204.42C353.01 170.21 353.06 151.2 353.07 147.4C349.18 164.05 343.69 183.03 336.61 204.33C328.67 204.33 324.27 204.33 323.39 204.33C315.17 178.89 309.81 160.1 307.32 147.95L307.18 204.26L291.85 204.22L292.05 133.89C305.24 133.92 312.57 133.94 314.04 133.95C323.41 160.74 328.31 180.96 329.89 186.18C334.38 170.06 339.68 152.68 345.8 134.03L368.77 134.12Z" id="a3dU7oPJk"></path><path d="M451.06 134.33L466.71 134.37L466.57 192.23L492.67 192.3L492.63 204.74L450.88 204.63L450.88 204.63L451.06 134.33Z" id="b3dxsjT4zF"></path><path d="M547.49 204.88L547.52 192.44L521.42 192.38L521.58 134.52L505.92 134.47L505.73 204.77L505.73 204.77L547.49 204.88Z" id="bOqEPSYrv"></path><path d="M176.95 66.08C175.12 66.4 173.27 66.6 171.42 66.69C171.42 64.77 171.42 49.42 171.42 47.5C171.42 39.38 177.72 40.2 178.42 39.39C187.77 39.39 186.84 51.45 187.77 52.79C187.77 60.74 184.17 65.17 176.95 66.08M116.34 66.69C114.48 66.6 112.63 66.4 110.8 66.08C99.97 64.72 101.06 54.12 99.98 52.79C99.98 39.39 108.4 40.73 109.33 39.39C114.01 39.39 116.34 42.09 116.34 47.5C116.34 57.73 116.34 64.13 116.34 66.69ZM195.64 31.88C189.14 24.99 180.15 25.68 178.42 24.99C167.48 24.99 163.04 31.3 161.33 32.01C157.78 36.02 156.01 41.27 156.01 47.75C156.01 53.87 156.01 57.27 156.01 57.95C156.01 62.75 154.23 64.11 154.04 64.79C152.72 66.16 150.51 66.83 147.4 66.82L131.72 66.82C131.72 55.38 131.72 49.02 131.72 47.75C131.72 38.03 126.93 33.58 126.4 32.01C120.24 25 111.01 25.69 109.3 24.99C98.6 24.99 93.8 31.19 92.08 31.88C84.69 39.76 85.44 51.14 84.7 53.28C84.7 63.61 89.9 69.11 90.48 70.87C95.07 76.62 101.59 79.94 110.04 80.83C111.96 81.06 113.02 81.18 113.24 81.2C114.63 81.29 115.65 81.37 116.28 81.45C115.91 85.39 112.35 87.54 111.91 88.21C109.24 90.1 106.03 91.09 102.75 91.04C98.06 90.97 93.48 89.66 89.47 87.24C89.47 88.58 89.47 99.3 89.47 100.64C94.05 103.34 99.27 104.78 104.59 104.82C110.77 104.95 116.81 103.05 121.81 99.42C127.63 95.32 131.27 88.8 131.7 81.7C132.7 81.7 140.74 81.7 141.74 81.7C147.32 81.7 152.08 80.26 156.01 77.4L156.01 81.7L159.29 81.7L159.29 81.65C166.56 81.53 170.59 81.47 171.4 81.46C172.05 81.38 173.08 81.3 174.44 81.21C174.76 81.18 177.32 80.88 177.64 80.84C190.31 79.49 195.24 71.88 197.19 70.88C202.99 63.61 202.4 55.05 202.98 53.29C202.98 44.26 200.52 37.13 195.6 31.88" id="e45ptbxpvT"></path><path d="M445.04 16.26C453.03 16.26 452.24 8.84 453.04 8.01C453.36 3.92 450.31 0.35 446.22 0.02C445.83 -0.01 445.43 -0.01 445.04 0.02C436.92 0.02 437.73 7.21 436.92 8.01C436.8 10.24 437.6 12.42 439.13 14.04C440.71 15.56 442.85 16.36 445.04 16.26" id="c40bGD2exQ"></path><path d="M463.98 16.26C471.97 16.26 471.17 8.84 471.97 8.01C472.3 3.92 469.24 0.35 465.15 0.02C464.77 -0.01 464.37 -0.01 463.98 0.02C455.86 0.02 456.68 7.21 455.86 8.01C455.75 10.24 456.54 12.42 458.08 14.04C459.66 15.56 461.79 16.36 463.98 16.26" id="k3yB4mL3M"></path><path d="M461.21 59.39C459.56 62.03 457.18 64.14 454.37 65.47C451.61 64.19 449.3 62.11 447.73 59.5C446.03 56.84 445.13 53.74 445.15 50.58C445.15 39.39 453.56 40.51 454.5 39.39C457.13 39.28 459.66 40.4 461.34 42.43C463.85 45.47 463.6 49.9 463.85 50.73C463.84 53.81 462.92 56.82 461.21 59.39M375.58 66.79L350.84 66.75L350.84 41.14C365.66 41.14 373.9 41.14 375.55 41.14C392.55 41.14 390.86 52.77 392.56 54.07C392.56 62.52 386.9 66.76 375.58 66.76M499.2 55.97C499.2 61.88 497.03 63.5 496.79 64.34C495.19 65.97 492.51 66.79 488.74 66.8C479.94 66.8 475.04 66.8 474.06 66.8C477.04 62.26 478.66 56.97 478.74 51.54C478.74 40.85 473.76 35.49 473.2 33.71C466.57 24.97 456.38 25.85 454.51 24.97C443.93 24.97 439.12 31.06 437.41 31.74C430.15 39.24 430.88 49.53 430.15 51.5C430.23 56.93 431.85 62.22 434.83 66.76C433.03 66.76 418.63 66.76 416.83 66.76C411.09 66.76 408.22 64.05 408.22 58.64C408.22 58.35 408.22 58.18 408.22 58.15C408.34 56.83 408.44 55.46 408.44 54.03C408.44 35.6 397.94 26.38 376.93 26.38L335.38 26.38L335.38 66.67C333.1 66.67 331.83 66.67 331.58 66.67C327.4 66.1 325.31 63.19 325.31 57.94L325.31 26.43L309.82 34.55C309.82 48.6 309.82 56.4 309.82 57.96C309.82 61.15 309.15 63.43 307.85 64.8C306.54 66.17 304.32 66.83 301.2 66.83C298.87 66.83 280.23 66.83 277.9 66.83C273.23 66.83 271.92 65 271.26 64.8C269.94 63.45 269.29 61.17 269.29 57.96C269.29 55.9 269.29 45.61 269.29 27.08L269.17 27.2L269.17 27.08L263.85 29.91L253.77 35.24C253.77 59.15 253.77 72.44 253.77 75.09C253.77 82.83 250.39 86 250.01 87.21C246.26 91.59 240.55 91.14 239.5 91.57C235.08 91.48 230.76 90.26 226.95 88.01C226.95 89.36 226.95 100.19 226.95 101.54C231.58 104.09 236.78 105.44 242.08 105.47C248.34 105.61 254.44 103.42 259.18 99.32C267.05 92.43 267.7 82.5 268.65 80.63C271.16 81.38 273.78 81.75 276.4 81.73C279.03 81.73 300.06 81.73 302.69 81.73C311.67 81.73 316.09 77.41 317.58 76.93C321.52 80.14 326.48 81.73 332.46 81.73C364.34 81.73 382.06 81.73 385.6 81.73C394.58 81.73 398.99 77.41 400.48 76.93C404.41 80.14 409.38 81.73 415.36 81.73C432.95 81.73 442.72 81.73 444.67 81.73C447.99 81.8 451.3 81.51 454.56 80.87C457.79 81.53 461.09 81.82 464.39 81.73C466.92 81.73 487.12 81.73 489.65 81.73C500.72 81.73 505.59 75.87 507.36 75.21C512.2 70.46 514.62 64.1 514.62 56.15L514.62 2.37L499.24 10.61C499.22 34.81 499.2 49.93 499.2 55.97Z" id="a6bM7mENx"></path><path d="M530.96 81.7L546.46 81.7L546.46 2.36L530.96 10.6L530.96 10.6L530.96 81.7Z" id="e1jng9bnLi"></path><path d="M102.91 154.08C104.74 159.79 107.24 167.27 110.39 176.53L104.39 176.53L99.83 189.37C108.82 189.4 113.81 189.42 114.81 189.43C116.5 195.36 117.97 200.13 119.21 203.76L135.09 203.81L109.29 133.44L96.41 133.44L70.24 203.66L85.79 203.71C94.92 177.24 100.62 160.7 102.91 154.08Z" id="anXwasmlg"></path><path d="M410.1 154.88C411.94 160.59 414.43 168.07 417.59 177.34L411.58 177.34L407.02 190.17C416.01 190.21 421.01 190.23 422.01 190.24C423.69 196.16 425.16 200.94 426.41 204.58L442.29 204.58L416.49 134.21L403.61 134.21L377.44 204.44L392.98 204.48C402.11 178.03 407.82 161.5 410.1 154.88Z" id="b2kX9yAim"></path></defs><g><g><g><use xlink:href="#g341OXQQIG" opacity="1" fill="#510c76" fill-opacity="1"></use><g><use xlink:href="#g341OXQQIG" opacity="1" fill-opacity="0" stroke="#000000" stroke-width="1" stroke-opacity="0"></use></g></g><g><use xlink:href="#cnhOSjnk8" opacity="1" fill="#510c76" fill-opacity="1"></use><g><use xlink:href="#cnhOSjnk8" opacity="1" fill-opacity="0" stroke="#000000" stroke-width="1" stroke-opacity="0"></use></g></g><g><use xlink:href="#avPDjQ74c" opacity="1" fill="#510c76" fill-opacity="1"></use><g><use xlink:href="#avPDjQ74c" opacity="1" fill-opacity="0" stroke="#000000" stroke-width="1" stroke-opacity="0"></use></g></g><g><use xlink:href="#bd1LS2ZTS" opacity="1" fill="#510c76" fill-opacity="1"></use><g><use xlink:href="#bd1LS2ZTS" opacity="1" fill-opacity="0" stroke="#000000" stroke-width="1" stroke-opacity="0"></use></g></g><g><use xlink:href="#a3dU7oPJk" opacity="1" fill="#510c76" fill-opacity="1"></use><g><use xlink:href="#a3dU7oPJk" opacity="1" fill-opacity="0" stroke="#000000" stroke-width="1" stroke-opacity="0"></use></g></g><g><use xlink:href="#b3dxsjT4zF" opacity="1" fill="#510c76" fill-opacity="1"></use><g><use xlink:href="#b3dxsjT4zF" opacity="1" fill-opacity="0" stroke="#000000" stroke-width="1" stroke-opacity="0"></use></g></g><g><use xlink:href="#bOqEPSYrv" opacity="1" fill="#510c76" fill-opacity="1"></use><g><use xlink:href="#bOqEPSYrv" opacity="1" fill-opacity="0" stroke="#000000" stroke-width="1" stroke-opacity="0"></use></g></g><g><use xlink:href="#e45ptbxpvT" opacity="1" fill="#510c76" fill-opacity="1"></use><g><use xlink:href="#e45ptbxpvT" opacity="1" fill-opacity="0" stroke="#000000" stroke-width="1" stroke-opacity="0"></use></g></g><g><use xlink:href="#c40bGD2exQ" opacity="1" fill="#510c76" fill-opacity="1"></use><g><use xlink:href="#c40bGD2exQ" opacity="1" fill-opacity="0" stroke="#000000" stroke-width="1" stroke-opacity="0"></use></g></g><g><use xlink:href="#k3yB4mL3M" opacity="1" fill="#510c76" fill-opacity="1"></use><g><use xlink:href="#k3yB4mL3M" opacity="1" fill-opacity="0" stroke="#000000" stroke-width="1" stroke-opacity="0"></use></g></g><g><use xlink:href="#a6bM7mENx" opacity="1" fill="#510c76" fill-opacity="1"></use><g><use xlink:href="#a6bM7mENx" opacity="1" fill-opacity="0" stroke="#000000" stroke-width="1" stroke-opacity="0"></use></g></g><g><use xlink:href="#e1jng9bnLi" opacity="1" fill="#510c76" fill-opacity="1"></use><g><use xlink:href="#e1jng9bnLi" opacity="1" fill-opacity="0" stroke="#000000" stroke-width="1" stroke-opacity="0"></use></g></g><g><use xlink:href="#anXwasmlg" opacity="1" fill="#510c76" fill-opacity="1"></use><g><use xlink:href="#anXwasmlg" opacity="1" fill-opacity="0" stroke="#000000" stroke-width="1" stroke-opacity="0"></use></g></g><g><use xlink:href="#b2kX9yAim" opacity="1" fill="#510c76" fill-opacity="1"></use><g><use xlink:href="#b2kX9yAim" opacity="1" fill-opacity="0" stroke="#000000" stroke-width="1" stroke-opacity="0"></use></g></g></g></g></svg>